<?xml version="1.0" encoding="iso-8859-1"?>
<!-- Generator: Adobe Illustrator 17.1.0, SVG Export Plug-In . SVG Version: 6.00 Build 0)  -->
<!DOCTYPE svg PUBLIC "-//W3C//DTD SVG 1.1//EN" "http://www.w3.org/Graphics/SVG/1.1/DTD/svg11.dtd">
<svg version="1.1" xmlns="http://www.w3.org/2000/svg" xmlns:xlink="http://www.w3.org/1999/xlink" x="0px" y="0px"
	 viewBox="0 0 64 64" style="enable-background:new 0 0 64 64;" xml:space="preserve">
<g id="imagenes">
</g>
<g id="iconos">
	<polygon points="21,42 37,31.562 37,22.547 21,32.985 	"/>
	<polygon points="10,38.255 20,42 20,32.985 10,29.241 	"/>
	<polygon points="20.5,31.443 35.5,21.75 25.682,17.545 10.625,27.523 	"/>
	<polygon points="54,11.547 38,21.985 38,31 54,20.562 	"/>
	<polygon points="52.5,10.75 42.682,6.545 27.625,16.523 37.5,20.443 	"/>
	<polygon points="13,58 29,47.562 29,38.547 13,48.985 	"/>
	<polygon points="12,48.985 2,45.241 2,54.255 12,58 	"/>
	<polygon points="18.903,43.494 9.682,39.545 2.625,43.875 12.5,47.443 	"/>
	<polygon points="55,19.263 55.5,19.443 61.903,15.494 55,12.538 	"/>
	<polygon points="30,47 46,36.562 46,27.547 30,37.985 	"/>
	<polygon points="47,26.985 47,36 63,25.562 63,16.547 	"/>
</g>
</svg>
