<?xml version="1.0" encoding="utf-8"?>
<!-- Generator: Adobe Illustrator 16.0.4, SVG Export Plug-In . SVG Version: 6.00 Build 0)  -->
<!DOCTYPE svg PUBLIC "-//W3C//DTD SVG 1.1//EN" "http://www.w3.org/Graphics/SVG/1.1/DTD/svg11.dtd">
<svg version="1.1" id="Layer_1" xmlns="http://www.w3.org/2000/svg" xmlns:xlink="http://www.w3.org/1999/xlink" x="0px" y="0px"
	 width="32px" height="32px" viewBox="0 0 32 32" enable-background="new 0 0 32 32" xml:space="preserve">
<g>
	<path d="M16.159-0.028c-8.752,0-15.872,7.12-15.872,15.872s7.12,15.872,15.872,15.872s15.872-7.12,15.872-15.872
		S24.911-0.028,16.159-0.028z M16.159,29.145c-7.333,0-13.3-5.967-13.3-13.301c0-7.333,5.966-13.3,13.3-13.3s13.3,5.966,13.3,13.3
		C29.458,23.177,23.492,29.145,16.159,29.145z"/>
	<path d="M16.159,6.071c-5.389,0-9.773,4.384-9.773,9.773s4.384,9.773,9.773,9.773c5.389,0,9.772-4.385,9.772-9.773
		C25.932,10.456,21.547,6.071,16.159,6.071z M16.159,23.045c-3.971,0-7.201-3.23-7.201-7.201s3.231-7.201,7.201-7.201
		c3.97,0,7.2,3.23,7.2,7.201S20.129,23.045,16.159,23.045z"/>
	<circle cx="16.159" cy="15.844" r="3.783"/>
</g>
</svg>
