<?xml version="1.0" encoding="utf-8"?>
<!-- Generator: Adobe Illustrator 15.0.0, SVG Export Plug-In . SVG Version: 6.00 Build 0)  -->
<!DOCTYPE svg PUBLIC "-//W3C//DTD SVG 1.1//EN" "http://www.w3.org/Graphics/SVG/1.1/DTD/svg11.dtd">
<svg version="1.1" id="Layer_1" xmlns="http://www.w3.org/2000/svg" xmlns:xlink="http://www.w3.org/1999/xlink" x="0px" y="0px"
	 width="26px" height="26px" viewBox="0 0 26 26" enable-background="new 0 0 26 26" xml:space="preserve">
<rect fill="none" width="26" height="26"/>
<path fill="#000000" d="M6.542,8.697C6.366,8.101,6.197,7.504,6.07,6.932C5.235,6.438,4.667,5.539,4.667,4.5
	c0-1.563,1.271-2.833,2.833-2.833s2.833,1.271,2.833,2.833c0,0.215-0.029,0.422-0.074,0.623c0.271,0.597,0.49,1.269,0.682,1.952
	c0.54-0.72,0.872-1.605,0.872-2.575c0-2.383-1.93-4.313-4.313-4.313S3.188,2.117,3.188,4.5C3.188,6.552,4.623,8.261,6.542,8.697z"/>
<path fill="#000000" d="M3.563,18.908c1.063-1.149,2.256-0.699,3.853-0.456c1.372,0.211,2.723-0.174,2.633-0.915
	c-0.142-1.199-0.342-1.735-0.797-3.288C8.889,13.014,8.2,10.788,7.573,8.66C6.733,5.813,6.49,4.491,7.608,4.161
	C8.813,3.81,9.504,5.522,10.13,7.896c0.713,2.702,1.088,3.895,1.298,3.832c0.37-0.106-0.136-1.262,0.832-1.547
	c1.21-0.352,1.444,0.594,1.783,0.499c0.339-0.102,0.224-1.06,1.189-1.342c0.97-0.28,1.457,0.914,1.857,0.795
	c0.396-0.117,0.387-0.548,0.985-0.719c0.599-0.178,2.853,0.831,4.143,5.238c1.619,5.541-0.205,6.571,0.348,8.447l-7.227,2.748
	c-0.585-1.407-2.397-1.511-4-2.408c-1.615-0.909-2.712-2.68-6.921-2.594C2.834,20.877,2.909,19.615,3.563,18.908z"/>
</svg>
